<svg width="16" height="16" viewBox="0 0 16 16" fill="none" xmlns="http://www.w3.org/2000/svg">
<g clip-path="url(#clip0_1135_3040)">
<g clip-path="url(#clip1_1135_3040)">
<path d="M10.2911 8.50758C10.2911 8.73352 10.2552 8.95102 10.1886 9.15477C9.85421 9.21867 9.53193 9.33983 9.23614 9.51102C8.81614 9.75602 8.45989 10.0998 8.20021 10.5095C7.76115 9.8103 7.02365 9.30649 6.21177 9.15477C5.76149 7.83158 6.80174 6.39833 8.20024 6.41792C9.35583 6.41789 10.2911 7.35445 10.2911 8.50758Z" fill="black"/>
<path d="M7.73135 12.1275C7.73135 13.2817 6.79507 14.2173 5.64029 14.2173C3.4952 14.1966 2.76879 11.39 4.59001 10.3203C4.59317 10.3187 4.59601 10.3168 4.59917 10.3149C5.20295 9.94944 6.07732 9.94932 6.68107 10.3149C7.30898 10.6757 7.73123 11.3523 7.73135 12.1275Z" fill="black"/>
<path d="M12.8514 12.1275C12.8514 13.2816 11.9151 14.2173 10.76 14.2173C8.60937 14.1958 7.88812 11.3787 9.71918 10.3149C10.3229 9.94932 11.1973 9.94944 11.8011 10.3149C11.8042 10.3168 11.8071 10.3187 11.8102 10.3203C12.433 10.6822 12.8514 11.356 12.8514 12.1275Z" fill="black"/>
<path d="M15.411 8.5076C15.411 9.64385 14.5032 10.5685 13.3732 10.5967C13.3729 10.596 13.3726 10.5957 13.3723 10.5951C13.1085 10.1463 12.7313 9.77135 12.2813 9.50979C12.2807 9.50948 12.2804 9.50916 12.2798 9.50885C12.276 9.50666 12.272 9.50448 12.2682 9.50198C11.9773 9.33479 11.6601 9.2176 11.3313 9.15479C10.8817 7.83298 11.9191 6.39879 13.3201 6.41791C14.4748 6.41791 15.411 7.35354 15.411 8.5076Z" fill="black"/>
<path d="M5.17145 8.50741C5.17145 8.73335 5.13551 8.95085 5.06895 9.1546C4.7402 9.21741 4.42301 9.3346 4.13207 9.50179C4.12832 9.50429 4.12426 9.50647 4.12051 9.50866C4.11988 9.50897 4.11957 9.50929 4.11895 9.5096C3.66895 9.77116 3.29176 10.1462 3.02801 10.5949C3.0277 10.5955 3.02738 10.5958 3.02707 10.5965C1.89707 10.5683 0.989258 9.64366 0.989258 8.50741C0.989258 7.35335 1.92551 6.41772 3.0802 6.41772C4.2352 6.41772 5.17145 7.35335 5.17145 8.50741Z" fill="black"/>
<path d="M6.10889 14.9622V15.3312C6.10889 15.59 5.8992 15.8 5.64014 15.8C5.38139 15.8 5.17139 15.59 5.17139 15.3312V14.9622C5.47539 15.0103 5.80473 15.0103 6.10889 14.9622Z" fill="black"/>
<path d="M11.229 14.9622V15.3312C11.229 15.59 11.019 15.8 10.7603 15.8C10.5012 15.8 10.2915 15.59 10.2915 15.3312V14.9622C10.5957 15.0103 10.925 15.0103 11.229 14.9622Z" fill="black"/>
<path d="M5.81205 6.64822C5.7508 6.72634 5.6933 6.80791 5.64048 6.89197C5.13923 6.10103 4.28142 5.55728 3.29517 5.48822C2.65579 4.02947 2.95767 2.25353 2.97423 2.16072C3.00861 1.96697 3.16017 1.81509 3.35392 1.78103C3.40079 1.77259 4.1733 1.63978 5.10923 1.72322C4.21323 3.44294 4.68879 5.28994 5.81205 6.64822Z" fill="black"/>
<path d="M10.8268 3.63778C10.8268 4.53903 10.4106 5.35028 9.90185 6.00466C8.93688 5.31219 7.46363 5.31225 6.49872 6.00466C4.42413 3.40828 6.29013 1.11035 7.93157 -0.115342C8.0931 -0.228154 8.30747 -0.228154 8.46907 -0.115342C8.95688 0.200346 10.8773 1.87013 10.8268 3.63778Z" fill="black"/>
<path d="M13.1053 5.48822C12.119 5.55728 11.2612 6.10103 10.7603 6.89197C10.7071 6.80791 10.6496 6.72634 10.5884 6.64822C11.7122 5.28862 12.1872 3.44306 11.2909 1.72322C12.2268 1.63978 12.9996 1.77259 13.0465 1.78103C13.2403 1.81509 13.3918 1.96697 13.4262 2.16072C13.4428 2.25353 13.7446 4.02947 13.1053 5.48822Z" fill="black"/>
</g>
</g>
<defs>
<clipPath id="clip0_1135_3040">
<rect width="16" height="16" fill="white"/>
</clipPath>
<clipPath id="clip1_1135_3040">
<rect width="16" height="16" fill="white" transform="translate(0.200195 -0.199951)"/>
</clipPath>
</defs>
</svg>
